<?xml version="1.0" encoding="utf-8"?>
<!-- Generator: Adobe Illustrator 18.0.0, SVG Export Plug-In . SVG Version: 6.00 Build 0)  -->
<!DOCTYPE svg PUBLIC "-//W3C//DTD SVG 1.1//EN" "http://www.w3.org/Graphics/SVG/1.1/DTD/svg11.dtd">
<svg version="1.1" id="Layer_1" xmlns="http://www.w3.org/2000/svg" xmlns:xlink="http://www.w3.org/1999/xlink" x="0px" y="0px"
	 viewBox="0 0 64 64" enable-background="new 0 0 64 64" xml:space="preserve">
<g id="Background">
	<path fill="#F6F8F8" d="M5,63.5c-2.4814,0-4.5-2.0186-4.5-4.5V5c0-2.4814,2.0186-4.5,4.5-4.5h54c2.4814,0,4.5,2.0186,4.5,4.5v54
		c0,2.4814-2.0186,4.5-4.5,4.5H5z"/>
	<path fill="#E0E5E5" d="M59,1c2.2056,0,4,1.7944,4,4v54c0,2.2056-1.7944,4-4,4H5c-2.2056,0-4-1.7944-4-4V5c0-2.2056,1.7944-4,4-4
		H59 M59,0H5C2.2386,0,0,2.2386,0,5v54c0,2.7614,2.2386,5,5,5h54c2.7614,0,5-2.2386,5-5V5C64,2.2386,61.7614,0,59,0L59,0z"/>
</g>
<circle id="Green" fill="#93B484" cx="11.0768" cy="25.2016" r="8"/>
<circle id="Red" fill="#DB8563" cx="19.0687" cy="49.7984" r="8"/>
<circle id="Black" fill="#ACA29A" cx="44.9313" cy="49.7984" r="8"/>
<circle id="Blue" fill="#B5CDE2" cx="52.9232" cy="25.2016" r="8"/>
<circle id="White" fill="#F0F2C1" cx="32" cy="10" r="8"/>
<g id="Compendium">
	<path fill="#5B5151" d="M53.49,23.06h-2.02l-1.15-0.49l-0.11-0.39l-1.42-0.71L48.3,20c-0.92,0.47-1.74,0.82-2.46,1.04
		c-0.77,0.21-1.7,0.11-2.79-0.31c-1.1-0.41-2.41-0.62-3.94-0.62c-1.5,0-3.68,0.31-6.56,0.93c-0.73-2.05-1.62-3.16-2.66-3.34
		c-1.03-0.1801-2.63-0.06-4.78,0.3799C22.96,18.52,21.1,16.82,19.53,13L18.16,18.9l-1.64-1.42l-0.49,2.08L14.88,20l-0.11,0.32
		l-0.98,0.39l-0.11,0.27l-1.15,0.44l-0.27,1.31h-1.92L4,47.07h22.91c0.66,1.56,2.15,2.35,4.4901,2.35c2.33,0,3.97-0.71,4.92-2.13H60
		L53.49,23.06z M49.77,22.62l5.69,21.66c-2.77-0.11-5.67-0.35-8.69-0.71c-3.03-0.37-7.28-0.22-12.75,0.43
		c1.57-0.54,3.18-0.93,4.84-1.14c1.66-0.22,3.79-0.33,6.4-0.33s5.75,0.29,9.44,0.87l-5.86-21.22L49.77,22.62z M32.66,21.69h0.05
		c0.04,0,0.75-0.14,2.13-0.44c1.39-0.29,2.81-0.43,4.27-0.43c0.73,0,1.4,0.06,2.02,0.19s1.19,0.24,1.7,0.35
		c0.62,0.19,1.19,0.32,1.72,0.41c0.53,0.09,1.01,0.07,1.45-0.08c0.33-0.11,0.66-0.23,0.98-0.35c0.33-0.13,0.62-0.25,0.88-0.36
		l6.12,21.82c-3.42-0.51-6.29-0.8-8.61-0.87c-2.31-0.08-4.67,0.01-7.05,0.27c-2.39,0.2599-4.28,0.89-5.66,1.91V21.69z M19.64,15.29
		c1.13,2.26,2.53,3.45,4.21,3.56c1.71,0.11,3.37-0.06,4.98-0.49c1.6-0.44,2.62,0.8,3.06,3.71c-0.04,4.23-0.07,7.62-0.11,10.18
		c-0.04,2.55-0.07,5.94-0.11,10.17c0-0.07-0.11-0.18-0.33-0.33c-0.22-0.15-0.34-0.24-0.38-0.27c-0.33-0.22-0.66-0.45-0.98-0.69
		c-0.33-0.23-0.68-0.44-1.04-0.63c-1.02-0.62-2.11-1.16-3.26-1.64c-1.14-0.47-2.32-0.74-3.52-0.82c-0.73-0.07-1.44-0.06-2.14,0.03
		c-0.69,0.09-1.38,0.21-2.07,0.36c-0.99,0.18-2.08,0.27-3.29,0.27L19.64,15.29z M16.85,18.63l1.2,0.98l-4.21,19.91
		c2.08-0.04,3.92-0.22,5.53-0.55c1.53-0.33,3.44-0.15,5.74,0.52c2.3,0.68,4.32,1.83,6.07,3.47c-4.81-2.47-9.12-3.44-12.91-2.89
		c-1.46,0.22-3.64,0.47-6.56,0.7599c1.09-4.6299,1.96-8.33,2.6-11.1S15.79,23.26,16.85,18.63z M15.16,20.38l0.71-0.22l-4.98,21.38
		c2.81-0.29,4.56-0.49,5.25-0.6c0.77-0.14,2.59-0.3,5.47-0.46c2.88-0.17,5.83,0.7,8.86,2.59c-4.78-1.4901-8.5099-2.11-11.21-1.86
		c-2.7,0.3-4.71,0.55-6.02,0.77c-1.31,0.22-2.39,0.4-3.22,0.55L15.16,20.38z M14.06,21.09l0.6-0.22l-5.25,22.2
		c5.25-0.94,9.21-1.4,11.8701-1.36c2.66,0.03,5.4,0.58,8.2,1.64c-3.68-0.84-6.65-1.22-8.91-1.15c-2.26,0.11-4.48,0.35-6.64,0.71
		c-2.17,0.37-4.02,0.73-5.55,1.09L14.06,21.09z M35.72,45.37c-0.33,1.68-1.72,2.52-4.16,2.52s-3.81-0.91-4.1-2.7401H6.95l6.02-23.35
		l0.6-0.22L7.61,44.77c3.54-0.73,5.89-1.19,7.05-1.37c0.59-0.07,1.6201-0.2,3.09-0.38c1.48-0.18,3.09-0.2599,4.84-0.22
		s3.49,0.24,5.23,0.6c1.73,0.37,3.16,1.06,4.29,2.08c3.1-1.06,6.27-1.59,9.51-1.59c3.25,0,6.09,0.18,8.54,0.52
		c2.44,0.35,4.4301,0.45,5.96,0.3l-5.64-21.49l0.82,0.33l5.64,21.82H35.72z"/>
	<path fill="#FFFFFF" d="M55.46,44.28c-2.77-0.11-5.67-0.35-8.69-0.71c-3.03-0.37-7.28-0.22-12.75,0.43
		c1.57-0.54,3.18-0.93,4.84-1.14c1.66-0.22,3.79-0.33,6.4-0.33s5.75,0.29,9.44,0.87l-5.86-21.22l0.93,0.44L55.46,44.28z"/>
	<path fill="#FFFFFF" d="M53.98,42.8c-3.42-0.51-6.29-0.8-8.61-0.87c-2.31-0.08-4.67,0.01-7.05,0.27
		c-2.39,0.2599-4.28,0.89-5.66,1.91V21.69h0.05c0.04,0,0.75-0.14,2.13-0.44c1.39-0.29,2.81-0.43,4.27-0.43
		c0.73,0,1.4,0.06,2.02,0.19s1.19,0.24,1.7,0.35c0.62,0.19,1.19,0.32,1.72,0.41c0.53,0.09,1.01,0.07,1.45-0.08
		c0.33-0.11,0.66-0.23,0.98-0.35c0.33-0.13,0.62-0.25,0.88-0.36L53.98,42.8z"/>
	<path fill="#FFFFFF" d="M31.89,22.07c-0.04,4.23-0.07,7.62-0.11,10.18c-0.04,2.55-0.07,5.94-0.11,10.17c0-0.07-0.11-0.18-0.33-0.33
		c-0.22-0.15-0.34-0.24-0.38-0.27c-0.33-0.22-0.66-0.45-0.98-0.69c-0.33-0.23-0.68-0.44-1.04-0.63c-1.02-0.62-2.11-1.16-3.26-1.64
		c-1.14-0.47-2.32-0.74-3.52-0.82c-0.73-0.07-1.44-0.06-2.14,0.03c-0.69,0.09-1.38,0.21-2.07,0.36c-0.99,0.18-2.08,0.27-3.29,0.27
		l4.98-23.41c1.13,2.26,2.53,3.45,4.21,3.56c1.71,0.11,3.37-0.06,4.98-0.49C30.43,17.92,31.45,19.16,31.89,22.07z"/>
	<path fill="#FFFFFF" d="M31.18,42.96c-4.81-2.47-9.12-3.44-12.91-2.89c-1.46,0.22-3.64,0.47-6.56,0.7599
		c1.09-4.6299,1.96-8.33,2.6-11.1s1.48-6.47,2.54-11.1l1.2,0.98l-4.21,19.91c2.08-0.04,3.92-0.22,5.53-0.55
		c1.53-0.33,3.44-0.15,5.74,0.52C27.41,40.17,29.43,41.32,31.18,42.96z"/>
	<path fill="#FFFFFF" d="M30.47,43.07c-4.78-1.4901-8.5099-2.11-11.21-1.86c-2.7,0.3-4.71,0.55-6.02,0.77
		c-1.31,0.22-2.39,0.4-3.22,0.55l5.14-22.15l0.71-0.22l-4.98,21.38c2.81-0.29,4.56-0.49,5.25-0.6c0.77-0.14,2.59-0.3,5.47-0.46
		C24.49,40.31,27.44,41.18,30.47,43.07z"/>
	<path fill="#FFFFFF" d="M29.48,43.35c-3.68-0.84-6.65-1.22-8.91-1.15c-2.26,0.11-4.48,0.35-6.64,0.71
		c-2.17,0.37-4.02,0.73-5.55,1.09l5.68-22.91l0.6-0.22l-5.25,22.2c5.25-0.94,9.21-1.4,11.8701-1.36
		C23.94,41.74,26.68,42.29,29.48,43.35z"/>
	<path fill="#FFFFFF" d="M56.94,45.37H35.72c-0.33,1.68-1.72,2.52-4.16,2.52s-3.81-0.91-4.1-2.7401H6.95l6.02-23.35l0.6-0.22
		L7.61,44.77c3.54-0.73,5.89-1.19,7.05-1.37c0.59-0.07,1.6201-0.2,3.09-0.38c1.48-0.18,3.09-0.2599,4.84-0.22s3.49,0.24,5.23,0.6
		c1.73,0.37,3.16,1.06,4.29,2.08c3.1-1.06,6.27-1.59,9.51-1.59c3.25,0,6.09,0.18,8.54,0.52c2.44,0.35,4.4301,0.45,5.96,0.3
		l-5.64-21.49l0.82,0.33L56.94,45.37z"/>
</g>
</svg>
